<svg height="480pt" viewBox="0 0 480.08177 480" width="480pt" xmlns="http://www.w3.org/2000/svg"><path d="m208 408.039062c-79.527344 0-144-64.46875-144-144v-256h-40c-8.835938 0-16 7.164063-16 16v432c0 8.839844 7.164062 16 16 16h320c8.835938 0 16-7.160156 16-16v-48zm0 0" fill="#cff09e"/><path d="m80 56.039062h208v32h-208zm0 0" fill="#a8dba8"/><path d="m160 380.039062c0 33.140626-26.863281 60-60 60s-60-26.859374-60-60c0-33.136718 26.863281-60 60-60s60 26.863282 60 60zm0 0" fill="#a8dba8"/><path d="m403.25 163.449219 41.570312 24-72 124.707031-41.570312-24zm0 0" fill="#a8dba8"/><path d="m372.800781 312.199219-41.601562-24-17.039063 45.523437 27.679688 16zm0 0" fill="#cff09e"/><path d="m315.398438 335.171875 27.839843 16-8 13.921875c-4.417969 7.6875-14.230469 10.335938-21.917969 5.917969s-10.339843-14.230469-5.921874-21.917969zm0 0" fill="#79bd9a"/><path d="m427.179688 121.914062 41.570312 24-24 41.570313-41.570312-24zm0 0" fill="#a8dba8"/><path d="m463.964844 106.203125c7.652344 4.417969 10.273437 14.203125 5.855468 21.855469l-8 13.859375-27.710937-16 8-13.859375c4.417969-7.652344 14.203125-10.273438 21.855469-5.855469zm0 0" fill="#79bd9a"/><g fill="#3b8686"><path d="m479.199219 113.800781c-1.652344-6.144531-5.683594-11.382812-11.199219-14.558593-5.519531-3.191407-12.082031-4.054688-18.238281-2.402344-6.148438 1.65625-11.386719 5.683594-14.5625 11.199218l-4 6.960938c-3.800781-2.183594-8.65625-.898438-10.878907 2.882812l-20.320312 34.636719-6.960938-4c-1.84375-1.066406-4.039062-1.355469-6.09375-.800781-2.058593.558594-3.808593 1.910156-4.867187 3.761719-2.167969 3.824219-.847656 8.683593 2.960937 10.878906l6.960938 4-24 42.082031v-184.402344c0-13.253906-10.746094-23.9999995-24-23.9999995h-320c-13.253906 0-24 10.7460935-24 23.9999995v432c0 13.257813 10.746094 24 24 24h320c13.253906 0 24-10.742187 24-24v-125.4375l10.960938-13.359374.558593-.722657 68.480469-118.160156 6.960938 4c1.855468 1.0625 3.207031 2.816406 3.757812 4.882813.554688 2.050781.265625 4.238281-.796875 6.078124l-32 55.441407c-1.207031 1.820312-1.617187 4.054687-1.132813 6.1875.484376 2.128906 1.816407 3.96875 3.691407 5.089843 1.84375 1.070313 4.039062 1.359376 6.09375.804688 2.058593-.558594 3.808593-1.910156 4.867187-3.761719l32-55.441406c3.191406-5.519531 4.054688-12.082031 2.398438-18.238281-1.65625-6.148438-5.683594-11.386719-11.199219-14.5625l-6.960937-4 20-34.640625c2.183593-3.800781.898437-8.652344-2.878907-10.878907l4-6.960937c3.277344-5.605469 4.144531-12.300781 2.398438-18.558594zm-30.160157 2.238281c1.058594-1.851562 2.816407-3.207031 4.882813-3.757812 2.054687-.507812 4.226563-.222656 6.078125.800781 1.855469 1.058594 3.207031 2.816407 3.761719 4.878907.507812 2.054687.222656 4.226562-.800781 6.078124l-4 6.960938-13.921876-8zm-97.039062 340c0 4.421876-3.582031 8-8 8h-320c-4.417969 0-8-3.578124-8-8v-432c0-4.417968 3.582031-8 8-8h320c4.417969 0 8 3.582032 8 8v212.160157l-27.679688 48v.640625.5625l-16.800781 44.878906-8.320312 13.757812c-4.648438 8.128907-4.148438 18.214844 1.28125 25.84375l-18 22.15625-5.039063-12.636718c-2.332031-5.476563-7.511718-9.207032-13.441406-9.679688-6.132812-.449218-11.980469 2.664063-15.039062 8l-2.882813 4.878906-2.71875-32c-.625-7.570312-6.484375-13.660156-14.027344-14.570312-7.539062-.910156-14.683593 3.605469-17.09375 10.808594l-19.679687 59.042968c-1.371094 4.171876.878906 8.671876 5.042968 10.078126.789063.167968 1.601563.195312 2.398438.078124 3.4375.011719 6.5-2.179687 7.601562-5.4375l19.597657-59.039062 2.800781 32.476562c.578125 6.929688 5.558594 12.691407 12.332031 14.261719 6.773438 1.570313 13.78125-1.414062 17.347657-7.378906l2.960937-4.882813 4.960937 12.5625c2.105469 5.292969 6.867188 9.070313 12.503907 9.910157 5.636719.839843 11.292969-1.382813 14.855469-5.832031l18.640624-24c2.058594.566406 4.183594.863281 6.320313.882812 8.507813.132812 16.453125-4.25 20.878906-11.523438l8-13.359374 3.519531-4.238282zm-12-116.636718-4-2.320313-11.839844-6.882812 11.359375-30.398438 25.199219 14.558594zm-26.640625 20.636718c-1.429687-2.472656-1.429687-5.523437 0-8l4-6.957031 13.921875 8-4 6.878907c-1.648438 2.777343-4.804688 4.292968-8 3.839843m51.199219-62.160156-27.679688-16 64-110.878906 27.679688 16zm72-124.71875-27.679688-16 16-27.679687 27.679688 16zm0 0"/><path d="m126.238281 358.519531-28.316406 28.242188-16.960937-16.960938c-3.121094-3.101562-8.160157-3.101562-11.28125 0-1.515626 1.503907-2.367188 3.546875-2.367188 5.679688 0 2.132812.851562 4.179687 2.367188 5.679687l16.960937 16.960938c3 2.976562 7.054687 4.644531 11.28125 4.640625 4.25.023437 8.339844-1.644531 11.359375-4.640625l28.238281-28.320313c2.71875-3.175781 2.535157-7.90625-.417969-10.859375-2.957031-2.957031-7.6875-3.140625-10.863281-.421875zm0 0"/><path d="m100 312.039062c-37.554688 0-68 30.445313-68 68 0 37.558594 30.445312 68 68 68s68-30.441406 68-68c-.042969-37.535156-30.464844-67.953124-68-68zm0 120c-28.71875 0-52-23.28125-52-52s23.28125-52 52-52 52 23.28125 52 52c-.042969 28.703126-23.300781 51.957032-52 52zm0 0"/><path d="m80 96.039062h208c4.417969 0 8-3.578124 8-8v-32c0-4.417968-3.582031-8-8-8h-208c-4.417969 0-8 3.582032-8 8v32c0 4.421876 3.582031 8 8 8zm8-32h192v16h-192zm0 0"/><path d="m272 120.039062c0-4.417968-3.582031-8-8-8h-160c-4.417969 0-8 3.582032-8 8 0 4.421876 3.582031 8 8 8h160c4.417969 0 8-3.578124 8-8zm0 0"/><path d="m128 176.039062c0 4.421876 3.582031 8 8 8h176c4.417969 0 8-3.578124 8-8 0-4.417968-3.582031-8-8-8h-176c-4.417969 0-8 3.582032-8 8zm0 0"/><path d="m64 232.039062h160c4.417969 0 8-3.578124 8-8 0-4.417968-3.582031-8-8-8h-160c-4.417969 0-8 3.582032-8 8 0 4.421876 3.582031 8 8 8zm0 0"/><path d="m312 216.039062h-56c-4.417969 0-8 3.582032-8 8 0 4.421876 3.582031 8 8 8h56c4.417969 0 8-3.578124 8-8 0-4.417968-3.582031-8-8-8zm0 0"/><path d="m64 272.039062h80c4.417969 0 8-3.578124 8-8 0-4.417968-3.582031-8-8-8h-80c-4.417969 0-8 3.582032-8 8 0 4.421876 3.582031 8 8 8zm0 0"/><path d="m240 264.039062c0-4.417968-3.582031-8-8-8h-56c-4.417969 0-8 3.582032-8 8 0 4.421876 3.582031 8 8 8h56c4.417969 0 8-3.578124 8-8zm0 0"/></g></svg>